# AST/ASF file generated using VICON BodyLanguage
# -----------------------------------------------
:version 1.10
:name VICON
:units
  mass 1.0
  length 0.45
  angle deg
:documentation
   .ast/.asf automatically generated from VICON data using
   VICON BodyBuilder and BodyLanguage model FoxedUp or BRILLIANT.MOD
:root
   order TX TY TZ RX RY RZ
   axis XYZ
   position 0 0 0  
   orientation 0 0 0 
:bonedata
  begin
     id 1 
     name lhipjoint
     direction 0.707368 -0.647095 0.284426 
     length 2.60678 
     axis 0 0 0  XYZ
  end
  begin
     id 2 
     name lfemur
     direction 0.34202 -0.939693 0  
     length 6.63812  
     axis 0 0 20  XYZ
    dof rx ry rz
    limits (-160.0 20.0)
           (-70.0 70.0)
           (-60.0 70.0)
  end
  begin
     id 3 
     name ltibia
     direction 0.34202 -0.939693 0   
     length 7.51178   
     axis 0 0 20   XYZ
    dof rx
    limits (-10.0 170.0)
  end
  begin
     id 4 
     name lfoot
     direction 0.121251 -0.333133 0.935051   
     length 1.83716   
     axis -90 7.62852e-016 20   XYZ
    dof rx rz
    limits (-45.0 90.0)
           (-70.0 20.0)
  end
  begin
     id 5 
     name ltoes
     direction 1.53611e-011 -4.21962e-011 1   
     length 0.916133   
     axis -90 7.62852e-016 20   XYZ
    dof rx
    limits (-90.0 20.0)
  end
  begin
     id 6 
     name rhipjoint
     direction -0.692419 -0.660507 0.290321   
     length 2.55385  
     axis 0 0 0  XYZ 
  end
  begin
     id 7 
     name rfemur
     direction -0.34202 -0.939693 0   
     length 7.29079   
     axis 0 0 -20   XYZ
    dof rx ry rz
    limits (-160.0 20.0)
           (-70.0 70.0)
           (-70.0 60.0)
  end
  begin
     id 8 
     name rtibia
     direction -0.34202 -0.939693 0   
     length 7.47143   
     axis 0 0 -20   XYZ
    dof rx
    limits (-10.0 170.0)
 end
 begin
     id 9 
     name rfoot
     direction -0.119907 -0.329441 0.936532   
     length 1.79439  
     axis -90 -7.62852e-016 -20   XYZ
    dof rx rz
    limits (-45.0 90.0)
           (-20.0 70.0)
  end
  begin
     id 10 
     name rtoes
     direction -1.53571e-011 -4.21961e-011 1   
     length 0.896039   
     axis -90 -7.62852e-016 -20   XYZ
    dof rx
    limits (-90.0 20.0)
  end
  begin
     id 11 
     name lowerback
     direction 0.0367721 0.992912 -0.113016   
     length 1.73542   
     axis 0 0 0   XYZ
    dof rx ry rz
    limits (-20.0 45.0)
           (-30.0 30.0)
           (-30.0 30.0)
  end
  begin
     id 12 
     name upperback
     direction -0.000314626 0.990678 0.136227   
     length 1.7514   
     axis 0 0 0   XYZ
    dof rx ry rz
    limits (-20.0 45.0)
           (-30.0 30.0)
           (-30.0 30.0)
  end
  begin
     id 13 
     name thorax
     direction -0.0226159 0.981151 0.191917   
     length 1.71471   
     axis 0 0 0   XYZ
    dof rx ry rz
    limits (-20.0 45.0)
           (-30.0 30.0)
           (-30.0 30.0)
  end
  begin
     id 14 
     name lowerneck
     direction 0.0219333 0.998071 0.0580739   
     length 1.65882   
     axis 0 0 0   XYZ
    dof rx ry rz
    limits (-20.0 45.0)
           (-30.0 30.0)
           (-30.0 30.0)
  end
  begin
     id 15 
     name upperneck
     direction 0.0384529 0.980058 -0.194957   
     length 1.6612   
     axis 0 0 0   XYZ
    dof rx ry rz
    limits (-20.0 45.0)
           (-30.0 30.0)
           (-30.0 30.0)
  end
  begin
     id 16
     name head
     direction 0.00592123 0.997421 -0.0715234  
     length 1.68077  
     axis 0 0 0   XYZ
    dof rx ry rz
    limits (-20.0 45.0)
           (-30.0 30.0)
           (-30.0 30.0)
  end
  begin
     id 17 
     name lclavicle
     direction 0.904803 0.417826 0.0821728  
     length 3.42227  
     axis 0 0 0   XYZ
    dof ry rz
    limits (-20.0 10.0)
           (0.0 20.0)
  end
  begin
     id 18 
     name lhumerus
     direction 1 -4.48965e-011 -2.68786e-027   
     length 5.11878   
     axis -180 -30 -90   XYZ
    dof rx ry rz
    limits (-60.0 90.0)
           (-90.0 90.0)
           (-90.0 90.0)
  end
  begin
     id 19
     name lradius
     direction 1 -4.48965e-011 2.61168e-028   
     length 3.59971   
     axis -180 -30 -90   XYZ
    dof rx
    limits (-10.0 170.0)
  end
  begin
     id 20
     name lwrist
     direction 1 -4.48965e-011 1.58672e-027   
     length 1.79985   
     axis -1.65735e-015 90 90   XYZ
    dof ry
    limits (-180.0 0.0)
 end
  begin
     id 21 
     name lhand
     direction 1 -4.48942e-011 3.17344e-027   
     length 0.62877   
     axis -2.02492e-015 90 90   XYZ
    dof rx rz
    limits (-90.0 90.0)
           (-45.0 45.0)
  end
  begin
     id 22 
     name lfingers
     direction 1 -4.49011e-011 6.34687e-027   
     length 0.506931   
     axis -4.04985e-015 90 90   XYZ
    dof rx
    limits (0.0 90.0)
  end
  begin
     id 23
     name lthumb
     direction 0.707107 -6.34982e-011 0.707107   
     length 0.727854   
     axis -90 45 2.85299e-015   XYZ
    dof rx rz
    limits (-45.0 45.0)
           (-45.0 45.0)
  end
  begin
     id 24 
     name rclavicle
     direction -0.945647 0.32488 0.0143075   
     length 3.52737  
     axis 0 0 0   XYZ 
    dof ry rz
    limits (-10.0 20.0)
           (-20.0 0.0)
  end
  begin
     id 25 
     name rhumerus
     direction -1 -4.48962e-011 1.92182e-027  
     length 5.4902   
     axis -180 30 90   XYZ
    dof rx ry rz
    limits (-90.0 60.0)
           (-90.0 90.0)
           (-90.0 90.0)
  end
  begin
     id 26 
     name rradius
     direction -1 -4.48967e-011 -5.97193e-028   
     length 3.20659   
     axis -180 30 90   XYZ
    dof rx
    limits (-10.0 170.0)
  end
  begin
     id 27 
     name rwrist
     direction -1 -4.48964e-011 1.58672e-027   
     length 1.6033   
     axis -1.65735e-015 -90 -90   XYZ
    dof ry
    limits (-180.0 0.0)
  end
  begin
     id 28
     name rhand
     direction -1 -4.49006e-011 3.17344e-027   
     length 0.691885   
     axis -2.02492e-015 -90 -90   XYZ
    dof rx rz
    limits (-90.0 90.0)
           (-45.0 45.0)
  end
  begin
     id 29
     name rfingers
     direction -1 -4.48908e-011 6.34687e-027   
     length 0.557815   
     axis -4.04985e-015 -90 -90   XYZ
    dof rx
    limits (0.0 90.0)
  end
  begin
     id 30
     name rthumb
     direction -0.707107 -6.34999e-011 0.707107   
     length 0.800915   
     axis -90 -45 -2.85299e-015   XYZ
    dof rx rz
    limits (-45.0 45.0)
           (-45.0 45.0)
  end
:hierarchy
  begin
    root lhipjoint rhipjoint lowerback
    lhipjoint lfemur
    lfemur ltibia
    ltibia lfoot
    lfoot ltoes
    rhipjoint rfemur
    rfemur rtibia
    rtibia rfoot
    rfoot rtoes
    lowerback upperback
    upperback thorax
    thorax lowerneck lclavicle rclavicle
    lowerneck upperneck
    upperneck head
    lclavicle lhumerus
    lhumerus lradius
    lradius lwrist
    lwrist lhand lthumb
    lhand lfingers
    rclavicle rhumerus
    rhumerus rradius
    rradius rwrist
    rwrist rhand rthumb
    rhand rfingers
  end

#!OML:ASF I:\Actors\actors\Patient Classification 1\Patient 1\Session 1\Subject1.ASF
:FULLY-SPECIFIED
:DEGREES
65
root 0.0288659 17.4386 8.20992 10.059 -1.34081 -8.29705
lowerback -0.671496 1.15176 4.73579
upperback -10.8442 2.04721 2.51211
thorax -11.1596 0.703525 -0.116323
lowerneck -11.6119 -8.30223 -6.38712
upperneck 32.9629 -12.8091 5.73102
head 13.9693 -5.70882 1.35817
rclavicle -2.57426e-014 2.93207e-014
rhumerus -46.1354 -23.1904 -71.4847
rradius 23.9935
rwrist 43.0887
rhand 9.17819 -34.6975
rfingers 7.12502
rthumb 34.3465 -61.4037
lclavicle -2.57426e-014 2.93207e-014
lhumerus -46.9745 20.1785 76.6139
lradius 22.0449
lwrist -26.554
lhand -18.0143 -11.9789
lfingers 7.12502
lthumb 8.25654 17.8398
rfemur -4.77857 27.5393 21.7357
rtibia 0.847732
rfoot -12.4132 -28.1324
rtoes 2.17898
lfemur 6.31601 -52.5765 -12.9386
ltibia -4.36792
lfoot -42.614 58.2641
ltoes 23.8044
66
root 0.0297607 17.4392 8.21132 10.0577 -1.35664 -8.30084
lowerback -0.669606 1.14938 4.744
upperback -10.8474 2.04564 2.523
thorax -11.1649 0.702465 -0.109001
lowerneck -11.5842 -8.29576 -6.51235
upperneck 32.9431 -12.8259 5.89613
head 13.9814 -5.71129 1.44208
rclavicle -2.90723e-015 -2.08724e-015
rhumerus -46.1126 -23.1383 -71.4821
rradius 23.9446
rwrist 43.0633
rhand 9.1804 -34.706
rfingers 7.12502
rthumb 34.3486 -61.4117
lclavicle -2.90723e-015 -2.08724e-015
lhumerus -46.9754 20.1753 76.6305
lradius 22.025
lwrist -26.5419
lhand -17.8666 -12.0165
lfingers 7.12502
lthumb 8.3991 17.7965
rfemur -4.76979 27.5638 21.7314
rtibia 0.831628
rfoot -12.3923 -28.1225
rtoes 2.03692
lfemur 6.35123 -52.5987 -12.9808
ltibia -4.35027
lfoot -42.6509 58.2995
ltoes 23.7456
67
root 0.0296904 17.4394 8.21185 10.0545 -1.35481 -8.30088
lowerback -0.658757 1.15089 4.75125
upperback -10.8474 2.04828 2.51622
thorax -11.1709 0.70254 -0.120746
lowerneck -11.5938 -8.30104 -6.57423
upperneck 32.9618 -12.8543 5.99191
head 14.0083 -5.71791 1.48457
rclavicle -2.61402e-014 3.08116e-015
rhumerus -46.0939 -23.1387 -71.4809
rradius 23.8939
rwrist 43.0476
rhand 9.1781 -34.6914
rfingers 7.12502
rthumb 34.3464 -61.3976
lclavicle -2.61402e-014 3.08116e-015
lhumerus -46.9604 20.1387 76.639
lradius 22.0309
lwrist -26.5612
lhand -17.6638 -12.04
lfingers 7.12502
lthumb 8.59477 17.7651
rfemur -4.76201 27.5594 21.7341
rtibia 0.820831
rfoot -12.3624 -28.1255
rtoes 1.91528
lfemur 6.37052 -52.6159 -12.9918
ltibia -4.36228
lfoot -42.5465 58.3572
ltoes 23.5882
68
root 0.030494 17.4387 8.21219 10.0703 -1.33926 -8.30128
lowerback -0.665997 1.14461 4.78518
upperback -10.8519 2.03976 2.49875
thorax -11.1706 0.694059 -0.157421
lowerneck -11.6212 -8.30619 -6.52683
upperneck 32.9826 -12.8629 5.95645
head 14.0172 -5.71919 1.46002
rclavicle 1.41883e-014 -5.66536e-015
rhumerus -46.105 -23.1741 -71.4796
rradius 23.8741
rwrist 43.0751
rhand 9.26714 -34.718
rfingers 7.12502
rthumb 34.4309 -61.4051
lclavicle 1.41883e-014 -5.66536e-015
lhumerus -46.9203 19.9905 76.754
lradius 22.17
lwrist -26.5817
lhand -17.4132 -11.2543
lfingers 7.12502
lthumb 8.83661 18.5406
rfemur -4.77694 27.4882 21.7308
rtibia 0.820888
rfoot -12.3164 -28.0982
rtoes 1.72679
lfemur 6.34464 -52.6456 -12.9678
ltibia -4.36942
lfoot -42.5482 58.3899
ltoes 23.5605
69
root 0.0311783 17.4384 8.21402 10.0662 -1.33792 -8.33907
lowerback -0.660663 1.14385 4.84508
upperback -10.8501 2.04232 2.49926
thorax -11.1707 0.689639 -0.190351
lowerneck -11.6397 -8.3146 -6.5193
upperneck 32.9791 -12.8773 5.95858
head 14.0205 -5.72381 1.45622
rclavicle 1.58779e-014 -4.6615e-014
rhumerus -46.1294 -23.1965 -71.4713
rradius 23.8622
rwrist 43.0715
rhand 9.36121 -34.7484
rfingers 7.12502
rthumb 34.5202 -61.4151
lclavicle 1.58779e-014 -4.6615e-014
lhumerus -46.8705 19.8708 76.8777
lradius 22.2917
lwrist -26.5909
lhand -17.1942 -10.4842
lfingers 7.12502
lthumb 9.04792 19.3017
rfemur -4.75583 27.4937 21.7832
rtibia 0.813204
rfoot -12.2686 -28.1064
rtoes 1.4783
lfemur 6.39416 -52.7039 -12.9597
ltibia -4.37629
lfoot -42.9238 58.3117
ltoes 23.8954
70
root 0.0309287 17.4388 8.21555 10.0561 -1.3411 -8.36368
lowerback -0.638421 1.1445 4.86798
upperback -10.8518 2.04666 2.5042
thorax -11.1859 0.689541 -0.198485
lowerneck -11.6472 -8.32254 -6.51581
upperneck 32.9661 -12.8862 5.95193
head 14.0162 -5.72818 1.45111
rclavicle 1.33683e-014 2.11706e-014
rhumerus -46.1577 -23.214 -71.4486
rradius 23.8544
rwrist 43.0656
rhand 9.35073 -34.7099
rfingers 7.12502
rthumb 34.5103 -61.3789
lclavicle 1.33683e-014 2.11706e-014
lhumerus -46.8786 20.0299 76.6819
lradius 22.0754
lwrist -26.4974
lhand -17.2938 -11.8542
lfingers 7.12502
lthumb 8.95187 17.9359
rfemur -4.7346 27.5646 21.8205
rtibia 0.805213
rfoot -12.2754 -28.1608
rtoes 1.47844
lfemur 6.4245 -52.7037 -12.9395
ltibia -4.39457
lfoot -43.2364 58.178
ltoes 24.2158
71
root 0.0318848 17.4384 8.21554 10.0883 -1.3412 -8.33104
lowerback -0.648572 1.1464 4.84297
upperback -10.8622 2.04716 2.49816
thorax -11.1919 0.691605 -0.190918
lowerneck -11.6803 -8.32903 -6.51616
upperneck 32.9756 -12.8923 5.9434
head 14.0276 -5.73056 1.44514
rclavicle 1.56294e-014 1.39149e-015
rhumerus -46.1664 -23.2043 -71.439
rradius 23.868
rwrist 43.0503
rhand 9.28862 -34.6922
rfingers 7.12502
rthumb 34.4513 -61.3746
lclavicle 1.56294e-014 1.39149e-015
lhumerus -46.8364 20.013 76.6985
lradius 22.0452
lwrist -26.4551
lhand -17.1133 -12.045
lfingers 7.12502
lthumb 9.12603 17.7376
rfemur -4.78732 27.5467 21.7534
rtibia 0.812883
rfoot -12.3399 -28.1517
rtoes 1.66527
lfemur 6.30183 -52.5822 -12.8821
ltibia -4.39017
lfoot -42.8445 58.2034
ltoes 23.9061
72
root 0.0333394 17.4382 8.21597 10.1138 -1.34618 -8.32958
lowerback -0.666817 1.14794 4.85393
upperback -10.8681 2.04891 2.49984
thorax -11.1875 0.691564 -0.194942
lowerneck -11.6682 -8.32651 -6.46093
upperneck 32.9411 -12.8808 5.89155
head 13.999 -5.72678 1.41836
rclavicle -9.51682e-015 -4.36332e-014
rhumerus -46.1814 -23.1409 -71.4712
rradius 23.9057
rwrist 43.0044
rhand 9.27903 -34.7613
rfingers 7.12502
rthumb 34.4422 -61.4458
lclavicle -9.51682e-015 -4.36332e-014
lhumerus -46.8082 20.0669 76.6609
lradius 21.9994
lwrist -26.5755
lhand -16.993 -11.9953
lfingers 7.12502
lthumb 9.24206 17.7822
rfemur -4.82686 27.5069 21.7288
rtibia 0.829623
rfoot -12.4094 -28.1131
rtoes 1.87018
lfemur 6.18518 -52.3568 -12.7909
ltibia -4.40523
lfoot -42.0084 58.2981
ltoes 23.1931
73
root 0.0329703 17.4384 8.21729 10.1116 -1.3522 -8.37614
lowerback -0.672233 1.14748 4.89057
upperback -10.8688 2.05095 2.51193
thorax -11.1849 0.689843 -0.202256
lowerneck -11.6005 -8.31956 -6.33182
upperneck 32.865 -12.8566 5.77539
head 13.9264 -5.71986 1.35929
rclavicle -1.29707e-014 -6.16232e-015
rhumerus -46.2371 -23.0794 -71.5015
rradius 23.9631
rwrist 42.9589
rhand 9.26759 -34.8217
rfingers 7.12502
rthumb 34.4313 -61.5087
lclavicle -1.29707e-014 -6.16232e-015
lhumerus -46.7989 20.0623 76.6512
lradius 21.9965
lwrist -26.6033
lhand -16.9369 -11.9262
lfingers 7.12502
lthumb 9.29619 17.8489
rfemur -4.82719 27.5606 21.7827
rtibia 0.853223
rfoot -12.4998 -28.1203
rtoes 2.11469
lfemur 6.13669 -52.1432 -12.6769
ltibia -4.44204
lfoot -41.495 58.2595
ltoes 22.8169
74
root 0.0320149 17.4379 8.21822 10.1209 -1.3557 -8.38901
lowerback -0.68391 1.14218 4.88446
upperback -10.8666 2.04329 2.52204
thorax -11.1761 0.687477 -0.187128
lowerneck -11.5764 -8.30578 -6.26858
upperneck 32.8205 -12.8324 5.73167
head 13.8899 -5.70928 1.33736
rclavicle -3.85891e-014 3.97569e-015
rhumerus -46.2581 -23.0197 -71.5315
rradius 24.0062
rwrist 42.8915
rhand 9.21693 -34.8222
rfingers 7.12502
rthumb 34.3833 -61.5201
lclavicle -3.85891e-014 3.97569e-015
lhumerus -46.7859 20.0295 76.6715
lradius 22.0153
lwrist -26.5308
lhand -17.0125 -12.034
lfingers 7.12502
lthumb 9.22324 17.7442
rfemur -4.85614 27.5309 21.7903
rtibia 0.879857
rfoot -12.4883 -28.0808
rtoes 2.05298
lfemur 6.08882 -52.0991 -12.6274
ltibia -4.4174
lfoot -41.5498 58.1869
ltoes 22.9462
75
root 0.0323169 17.4379 8.21888 10.1276 -1.36198 -8.34524
lowerback -0.680883 1.13263 4.84119
upperback -10.8551 2.02739 2.52048
thorax -11.1658 0.68398 -0.163631
lowerneck -11.5751 -8.27372 -6.29076
upperneck 32.7788 -12.8034 5.81583
head 13.8781 -5.68934 1.37931
rclavicle -1.80397e-014 3.26007e-014
rhumerus -46.2125 -22.9384 -71.5915
rradius 24.0212
rwrist 42.814
rhand 9.15598 -34.8756
rfingers 7.12502
rthumb 34.3254 -61.5865
lclavicle -1.80397e-014 3.26007e-014
lhumerus -46.772 19.9461 76.7415
lradius 22.0748
lwrist -26.3873
lhand -17.1533 -12.1505
lfingers 7.12502
lthumb 9.08742 17.6337
rfemur -4.87563 27.391 21.7332
rtibia 0.878652
rfoot -12.3272 -27.9924
rtoes 1.66914
lfemur 6.09384 -52.2089 -12.7111
ltibia -4.36051
lfoot -41.9473 58.1558
ltoes 23.2788
76
root 0.0324218 17.4377 8.21972 10.1347 -1.37166 -8.32066
lowerback -0.687379 1.13288 4.8121
upperback -10.8384 2.02498 2.52332
thorax -11.1432 0.6863 -0.14428
lowerneck -11.5417 -8.24748 -6.31447
upperneck 32.708 -12.7877 5.91917
head 13.8493 -5.6745 1.42835
rclavicle -2.45996e-015 -5.48646e-014
rhumerus -46.1598 -22.9115 -71.616
rradius 24.0202
rwrist 42.7843
rhand 9.04884 -34.9398
rfingers 7.12502
rthumb 34.2236 -61.6737
lclavicle -2.45996e-015 -5.48646e-014
lhumerus -46.6897 19.5521 77.1361
lradius 22.3684
lwrist -26.136
lhand -17.0115 -10.8505
lfingers 7.12502
lthumb 9.2242 18.9277
rfemur -4.88109 27.3476 21.6953
rtibia 0.855671
rfoot -12.2285 -27.9593
rtoes 1.50532
lfemur 6.11793 -52.3038 -12.7698
ltibia -4.34287
lfoot -42.1491 58.1778
ltoes 23.3432
